<svg xmlns="http://www.w3.org/2000/svg" viewBox="0 0 14 14"><path fill="#FFF" fill-rule="evenodd" d="M7 .176c-3.852 0-7 3.148-7 7a7.005 7.005 0 0 0 4.77 6.648c.347.043.48-.129.48-.347v-1.184c-1.969.437-2.363-.918-2.363-.918-.305-.79-.785-1.008-.785-1.008-.657-.437.043-.437.043-.437.699.047 1.093.703 1.093.703.614 1.047 1.617.742 2.055.566.043-.437.262-.742.437-.918-1.574-.176-3.19-.789-3.19-3.457 0-.742.26-1.398.698-1.879-.09-.175-.308-.875.086-1.84 0 0 .57-.175 1.926.7.57-.172 1.137-.22 1.75-.22s1.18.09 1.75.22c1.355-.918 1.926-.743 1.926-.743.394.961.129 1.665.086 1.836.437.485.699 1.094.699 1.883 0 2.668-1.617 3.282-3.191 3.457.261.219.48.657.48 1.313v1.926c0 .171.133.39.48.347A7.005 7.005 0 0 0 14 7.176c0-3.852-3.148-7-7-7zm0 0"/></svg>