<svg xmlns="http://www.w3.org/2000/svg" viewBox="0 0 14 14"><path fill="#FFF" d="M12.336 0H1.664A1.66 1.66 0 0 0 0 1.664v10.672A1.66 1.66 0 0 0 1.664 14h10.672A1.66 1.66 0 0 0 14 12.336V1.664A1.66 1.66 0 0 0 12.336 0zM10.5 1.75h1.313c.261 0 .437.176.437.438V3.5c0 .262-.176.438-.438.438H10.5c-.262 0-.438-.176-.438-.438V2.187c0-.261.176-.437.438-.437zM7 4.332c1.488 0 2.71 1.18 2.71 2.668 0 1.488-1.222 2.668-2.71 2.668S4.29 8.488 4.29 7C4.331 5.512 5.511 4.332 7 4.332zm5.25 8.355H1.75c-.262 0-.438-.175-.438-.437V5.687h1.75c-.218.352-.304.918-.304 1.313A4.244 4.244 0 0 0 7 11.242 4.244 4.244 0 0 0 11.242 7c0-.395-.043-1.008-.347-1.313h1.75v6.563c.043.262-.133.438-.395.438zm0 0"/></svg>