<svg xmlns="http://www.w3.org/2000/svg" viewBox="0 0 14 14"><path fill="#FFF" d="M13.43 0H.57A.579.579 0 0 0 0 .57v12.817c0 .351.262.613.57.613h12.817c.308 0 .57-.262.57-.57V.57C14 .262 13.738 0 13.43 0zM4.156 11.945H2.055V5.25h2.101zm-1.05-7.613a1.223 1.223 0 0 1-1.223-1.227 1.22 1.22 0 0 1 1.222-1.222c.657 0 1.227.523 1.227 1.222 0 .7-.57 1.227-1.227 1.227zm8.84 7.613h-2.06V8.707c0-.789 0-1.75-1.093-1.75-1.094 0-1.223.832-1.223 1.707v3.324H5.512V5.25h1.926v.918h.042c.262-.523.965-1.094 1.97-1.094 2.1 0 2.495 1.403 2.495 3.196zm0 0"/></svg>