<svg xmlns="http://www.w3.org/2000/svg" viewBox="0 0 14 14"><g fill="#FFF"><path d="M.043 14l1.008-3.586a6.816 6.816 0 0 1-.918-3.457C.086 3.105 3.195 0 7.043 0c1.84 0 3.59.742 4.902 2.055a6.883 6.883 0 0 1 2.012 4.902c0 3.805-3.105 6.957-6.957 6.957-1.18 0-2.32-.309-3.324-.832zm3.852-2.23l.218.128c.875.528 1.88.79 2.93.79a5.77 5.77 0 0 0 5.777-5.774 5.734 5.734 0 0 0-1.707-4.07 5.734 5.734 0 0 0-4.07-1.707C3.852 1.18 1.27 3.762 1.27 6.957a5.78 5.78 0 0 0 .875 3.063l.128.218-.566 2.145zm0 0"/><path fill-rule="evenodd" d="M5.293 4.023c-.129-.347-.262-.304-.395-.304h-.347a.659.659 0 0 0-.48.219c-.133.175-.571.613-.571 1.445 0 .875.613 1.66.7 1.793.09.129 1.226 1.879 2.976 2.625.394.176.742.304 1.004.347.394.133.789.133 1.093.09.352-.043 1.008-.437 1.184-.832.129-.394.129-.742.086-.832-.043-.086-.176-.129-.348-.219-.175-.043-1.008-.48-1.183-.523-.176-.043-.262-.09-.395.086-.129.176-.437.57-.566.7-.09.132-.219.132-.395.046-.176-.09-.742-.266-1.398-.875-.528-.484-.875-1.008-.965-1.184-.086-.175 0-.261.09-.347.086-.09.172-.219.262-.309a.755.755 0 0 0 .175-.304c.043-.133.043-.22 0-.31-.047-.085-.394-.96-.527-1.312zm0 0"/></g></svg>